<?xml version="1.0" encoding="utf-8"?>
<svg version="1.1" id="Layer_1"
    xmlns="http://www.w3.org/2000/svg"
    xmlns:xlink="http://www.w3.org/1999/xlink" x="0px" y="0px" viewBox="0 0 122.88 120.36" style="enable-background:new 0 0 122.88 120.36" xml:space="preserve">
    <style type="text/css"><![CDATA[
	.st0{fill-rule:evenodd;clip-rule:evenodd;fill:#BC5050;}
	.st1{fill-rule:evenodd;clip-rule:evenodd;fill:#FAC900;}
	.st2{fill-rule:evenodd;clip-rule:evenodd;fill:#FF8985;}
	.st3{fill-rule:evenodd;clip-rule:evenodd;fill:#FFED33;}
]]>    </style>
    <g>
        <path class="st2" d="M77.18,34.92l0.25,0.06c0.36,0.12,0.7,0.19,1.01,0.21c0.34,0.02,0.66,0,0.96-0.06 c0.86-0.17,2.14-0.97,3.52-1.83c1.54-0.96,3.19-1.98,4.94-2.57c1.18-0.4,5.3-0.67,9.22-0.75c4.46-0.1,8.89,0.28,9.34,1.18 c0.35,0.69,0.57,1.58,0.49,2.57c-0.06,0.79-0.31,1.64-0.82,2.5c-1.17,1.97-3.28,3.43-5.28,4.8c-2.03,1.39-3.89,2.67-3.58,3.63 c0.02,0.08,0.22,0.25,0.52,0.49c0.44,0.35,1.08,0.76,1.75,1.17c2.69,1.64,4.79,3.38,6.57,5.43c1.76,2.03,3.22,4.35,4.65,7.2 c0.42,0.83,0.82,1.68,1.2,2.56c0.41,0.94,0.8,1.89,1.17,2.85l0.08,0.31c0.22,1.31,0.51,2.31,0.9,2.92c0.19,0.3,0.37,0.45,0.54,0.45 l0.05-0.01h2.1c0.34,0,0.61-0.02,0.85-0.03c2-0.14,3.12-0.21,4.29,2.79c0.81,2.08,1.08,4.98,0.96,7.87 c-0.13,3.11-0.7,6.28-1.53,8.45c-0.3,1.43-0.95,2.57-1.96,3.41c-1.01,0.83-2.33,1.33-3.98,1.46l-0.13,0.01h-2.34 c-1.02,0-1.91-0.04-2.57-0.06c-0.63-0.02-0.76-0.11-0.84-0.07c-0.12,0.06,0.03,0.07-0.14,0.29c-0.42,0.58-1.09,1.5-2.5,2.96 c-1.01,1.04-2.18,2.19-3.3,3.25c-1.04,0.98-2.08,1.91-2.94,2.63l-0.53,0.44c-0.97,0.8-1.44,1.19-1.46,1.31 c-0.04,0.23,0.25,0.93,0.82,2.3c0.24,0.58,0.39,0.93,0.44,1.06c0.57,1.4,1.14,2.76,1.66,3.95c0.87,2.01,1.83,4.13,2.14,4.83 l0.03,0.07c0.71,1.8,0.55,3.17-0.44,4.15c-0.84,0.83-2.17,1.15-3.97,1.01h-8.43c-1.18,0.08-2.3-0.17-3.35-0.77 c-1-0.57-1.91-1.43-2.73-2.58l-0.08-0.13c-0.31-0.54-0.63-1.25-0.97-2.01c-0.83-1.84-1.85-4.13-2.68-3.8 c-5.72,2.23-11.31,3.56-17.36,3.76c-5.98,0.2-12.38-0.7-19.77-2.94c-2.12-0.3-2.55,0.6-3.23,2.02c-0.19,0.4-0.39,0.83-0.67,1.36 l0,0c-0.17,0.35-0.23,0.49-0.3,0.62c-0.98,2.09-1.92,4.11-4.85,4.7l-0.32,0.03l-10.89-0.08h-0.11c-0.67-0.05-1.26-0.2-1.78-0.48 c-0.6-0.31-1.06-0.76-1.39-1.36c-0.97-1.77-0.32-3.11,0.34-4.46h-0.01c0.11-0.23,0.23-0.47,0.26-0.53l0.01-0.01l3.83-8.38 l0.07-0.14c0.4-0.69,0.55-1.26,0.46-1.7c-0.09-0.43-0.41-0.85-0.94-1.26l0,0c-0.76-0.54-1.5-1.1-2.21-1.67 c-0.74-0.59-1.44-1.2-2.12-1.82c-2.25-2.06-4.33-4.48-6.11-7.14c-1.71-2.55-3.15-5.33-4.19-8.23c-0.81-2.27-1.38-4.6-1.66-6.94 C8.08,75.63,8.03,75.08,8,74.54c-3.53-1.7-6.02-4.73-7.22-8.73c-1.21-4.07-1.06-9.13,0.74-14.77l3.06,0.98 c-1.6,4.99-1.75,9.4-0.72,12.87c0.77,2.56,2.2,4.61,4.19,5.98c0.04-0.48,0.1-0.97,0.17-1.45c0.76-5.24,2.79-10.12,5.69-14.45 C27.96,34.05,54.36,31.28,77.18,34.92L77.18,34.92z"/>
        <path class="st0" d="M94.61,62.3c1.44,0,2.74,0.58,3.68,1.52c0.94,0.94,1.52,2.24,1.52,3.68s-0.58,2.74-1.52,3.68 c-0.94,0.94-2.24,1.52-3.68,1.52c-1.43,0-2.73-0.58-3.67-1.52c-0.98-0.97-1.52-2.29-1.52-3.67c0-1.44,0.58-2.74,1.52-3.68 C91.91,62.85,93.22,62.3,94.61,62.3L94.61,62.3z M40.89,49.19c-1.44,0.49-3-0.27-3.49-1.7c-0.49-1.44,0.27-3,1.7-3.49 c6.16-2.13,12.4-3.12,18.69-3.09c6.28,0.04,12.6,1.09,18.93,3.06c1.45,0.45,2.27,1.99,1.82,3.44c-0.45,1.45-1.99,2.27-3.44,1.82 c-5.85-1.81-11.63-2.79-17.34-2.82C52.08,46.37,46.44,47.27,40.89,49.19L40.89,49.19z"/>
        <path class="st1" d="M57.95,0c12.08,0,21.87,9.79,21.87,21.87s-9.79,21.87-21.87,21.87s-21.87-9.79-21.87-21.87S45.87,0,57.95,0 L57.95,0z M57.95,5.94c8.8,0,15.93,7.13,15.93,15.93S66.75,37.8,57.95,37.8c-8.8,0-15.93-7.13-15.93-15.93S49.16,5.94,57.95,5.94 L57.95,5.94z"/>
        <path class="st3" d="M57.95,5.94c8.8,0,15.93,7.13,15.93,15.93S66.75,37.8,57.95,37.8c-8.8,0-15.93-7.13-15.93-15.93 S49.16,5.94,57.95,5.94L57.95,5.94z"/>
    </g>
</svg>
